{
    "asset" : {
        "generator" : "Khronos glTF Blender I/O v3.4.50",
        "version" : "2.0"
    },
    "scene" : 0,
    "scenes" : [
        {
            "name" : "Scene",
            "nodes" : [
                0,
                1,
                2
            ]
        }
    ],
    "nodes" : [
        {
            "name" : "Light.001",
            "rotation" : [
                0.16907577216625214,
                0.7558803558349609,
                -0.27217137813568115,
                0.5709474682807922
            ],
            "translation" : [
                4.076245307922363,
                5.903861999511719,
                -1.0054539442062378
            ]
        },
        {
            "name" : "Camera.001",
            "rotation" : [
                0.483536034822464,
                0.33687159419059753,
                -0.20870360732078552,
                0.7804827094078064
            ],
            "translation" : [
                7.358891487121582,
                4.958309173583984,
                6.925790786743164
            ]
        },
        {
            "mesh" : 0,
            "name" : "hm2",
            "rotation" : [
                0.70710688829422,
                0,
                0,
                0.7071066498756409
            ]
        }
    ],
    "materials" : [
        {
            "doubleSided" : false,
            "name" : "blinn1SG",
            "pbrMetallicRoughness" : {
                "baseColorFactor" : [
                    0.5799999833106995,
                    0.5799999833106995,
                    0.5799999833106995,
                    1
                ],
                "metallicFactor" : 0
            }
        },
        {
            "doubleSided" : false,
            "name" : "initialShadingGroup",
            "pbrMetallicRoughness" : {
                "baseColorFactor" : [
                    0.25999999046325684,
                    0.25999999046325684,
                    0.27000001072883606,
                    1
                ],
                "metallicFactor" : 0
            }
        },
        {
            "doubleSided" : false,
            "name" : "blinn2SG",
            "pbrMetallicRoughness" : {
                "baseColorFactor" : [
                    1,
                    0,
                    0,
                    1
                ],
                "metallicFactor" : 0
            }
        },
        {
            "doubleSided" : false,
            "name" : "phong1SG",
            "pbrMetallicRoughness" : {
                "metallicFactor" : 0,
                "roughnessFactor" : 0.858578622341156
            }
        },
        {
            "doubleSided" : false,
            "name" : "lambert2SG",
            "pbrMetallicRoughness" : {
                "baseColorFactor" : [
                    0.5,
                    0.5,
                    0.5,
                    1
                ],
                "metallicFactor" : 0
            }
        },
        {
            "alphaMode" : "BLEND",
            "doubleSided" : false,
            "name" : "_initialShadingGroup",
            "pbrMetallicRoughness" : {
                "baseColorFactor" : [
                    1,
                    1,
                    0,
                    1
                ],
                "metallicFactor" : 0,
                "roughnessFactor" : 0.858578622341156
            }
        },
        {
            "doubleSided" : false,
            "name" : "phong2SG",
            "pbrMetallicRoughness" : {
                "baseColorFactor" : [
                    1,
                    0,
                    0,
                    1
                ],
                "metallicFactor" : 0,
                "roughnessFactor" : 0.858578622341156
            }
        },
        {
            "doubleSided" : false,
            "name" : "_blinn4SG",
            "pbrMetallicRoughness" : {
                "baseColorFactor" : [
                    0.27000001072883606,
                    0.27000001072883606,
                    0.27000001072883606,
                    1
                ],
                "metallicFactor" : 0
            }
        },
        {
            "doubleSided" : false,
            "name" : "typeBlinnSG",
            "pbrMetallicRoughness" : {
                "metallicFactor" : 0
            }
        }
    ],
    "meshes" : [
        {
            "name" : "hm2",
            "primitives" : [
                {
                    "attributes" : {
                        "POSITION" : 0,
                        "TEXCOORD_0" : 1,
                        "NORMAL" : 2
                    },
                    "indices" : 3,
                    "material" : 0
                },
                {
                    "attributes" : {
                        "POSITION" : 4,
                        "TEXCOORD_0" : 5,
                        "NORMAL" : 6
                    },
                    "indices" : 7,
                    "material" : 1
                },
                {
                    "attributes" : {
                        "POSITION" : 8,
                        "TEXCOORD_0" : 9,
                        "NORMAL" : 10
                    },
                    "indices" : 11,
                    "material" : 2
                },
                {
                    "attributes" : {
                        "POSITION" : 12,
                        "TEXCOORD_0" : 13,
                        "NORMAL" : 14
                    },
                    "indices" : 15,
                    "material" : 3
                },
                {
                    "attributes" : {
                        "POSITION" : 16,
                        "TEXCOORD_0" : 17,
                        "NORMAL" : 18
                    },
                    "indices" : 19,
                    "material" : 4
                },
                {
                    "attributes" : {
                        "POSITION" : 20,
                        "TEXCOORD_0" : 21,
                        "NORMAL" : 22
                    },
                    "indices" : 23,
                    "material" : 5
                },
                {
                    "attributes" : {
                        "POSITION" : 24,
                        "TEXCOORD_0" : 25,
                        "NORMAL" : 26
                    },
                    "indices" : 27,
                    "material" : 6
                },
                {
                    "attributes" : {
                        "POSITION" : 28,
                        "TEXCOORD_0" : 29,
                        "NORMAL" : 30
                    },
                    "indices" : 31,
                    "material" : 7
                },
                {
                    "attributes" : {
                        "POSITION" : 32,
                        "TEXCOORD_0" : 33,
                        "NORMAL" : 34
                    },
                    "indices" : 35,
                    "material" : 8
                }
            ]
        }
    ],
    "accessors" : [
        {
            "bufferView" : 0,
            "componentType" : 5126,
            "count" : 10108,
            "max" : [
                1.8038690090179443,
                6.512210845947266,
                1.0364079475402832
            ],
            "min" : [
                -1.3922250270843506,
                -6.578971862792969,
                -0.9613440036773682
            ],
            "type" : "VEC3"
        },
        {
            "bufferView" : 1,
            "componentType" : 5126,
            "count" : 10108,
            "type" : "VEC2"
        },
        {
            "bufferView" : 2,
            "componentType" : 5126,
            "count" : 10108,
            "type" : "VEC3"
        },
        {
            "bufferView" : 3,
            "componentType" : 5123,
            "count" : 14268,
            "type" : "SCALAR"
        },
        {
            "bufferView" : 4,
            "componentType" : 5126,
            "count" : 73034,
            "max" : [
                2.5463640689849854,
                6.50339412689209,
                1.2915209531784058
            ],
            "min" : [
                -1.407824993133545,
                -6.578971862792969,
                -1.19193696975708
            ],
            "type" : "VEC3"
        },
        {
            "bufferView" : 5,
            "componentType" : 5126,
            "count" : 73034,
            "type" : "VEC2"
        },
        {
            "bufferView" : 6,
            "componentType" : 5126,
            "count" : 73034,
            "type" : "VEC3"
        },
        {
            "bufferView" : 7,
            "componentType" : 5125,
            "count" : 155151,
            "type" : "SCALAR"
        },
        {
            "bufferView" : 8,
            "componentType" : 5126,
            "count" : 846,
            "max" : [
                0.5247430205345154,
                5.723696231842041,
                1.4529759883880615
            ],
            "min" : [
                -0.5247489809989929,
                -6.411395072937012,
                0.8451550006866455
            ],
            "type" : "VEC3"
        },
        {
            "bufferView" : 9,
            "componentType" : 5126,
            "count" : 846,
            "type" : "VEC2"
        },
        {
            "bufferView" : 10,
            "componentType" : 5126,
            "count" : 846,
            "type" : "VEC3"
        },
        {
            "bufferView" : 11,
            "componentType" : 5123,
            "count" : 3129,
            "type" : "SCALAR"
        },
        {
            "bufferView" : 12,
            "componentType" : 5126,
            "count" : 5313,
            "max" : [
                1.539736032485962,
                2.983154058456421,
                0.365013986825943
            ],
            "min" : [
                -0.3253679871559143,
                -6.366960048675537,
                0.33092600107192993
            ],
            "type" : "VEC3"
        },
        {
            "bufferView" : 13,
            "componentType" : 5126,
            "count" : 5313,
            "type" : "VEC2"
        },
        {
            "bufferView" : 14,
            "componentType" : 5126,
            "count" : 5313,
            "type" : "VEC3"
        },
        {
            "bufferView" : 15,
            "componentType" : 5123,
            "count" : 7218,
            "type" : "SCALAR"
        },
        {
            "bufferView" : 16,
            "componentType" : 5126,
            "count" : 154,
            "max" : [
                1.2226250171661377,
                2.159193992614746,
                0.4260520040988922
            ],
            "min" : [
                -1.1420769691467285,
                -2.6852030754089355,
                0.32163599133491516
            ],
            "type" : "VEC3"
        },
        {
            "bufferView" : 17,
            "componentType" : 5126,
            "count" : 154,
            "type" : "VEC2"
        },
        {
            "bufferView" : 18,
            "componentType" : 5126,
            "count" : 154,
            "type" : "VEC3"
        },
        {
            "bufferView" : 19,
            "componentType" : 5123,
            "count" : 192,
            "type" : "SCALAR"
        },
        {
            "bufferView" : 20,
            "componentType" : 5126,
            "count" : 2925,
            "max" : [
                1.261749029159546,
                6.465807914733887,
                1.3946590423583984
            ],
            "min" : [
                -0.5452489852905273,
                -6.287915229797363,
                0.095551997423172
            ],
            "type" : "VEC3"
        },
        {
            "bufferView" : 21,
            "componentType" : 5126,
            "count" : 2925,
            "type" : "VEC2"
        },
        {
            "bufferView" : 22,
            "componentType" : 5126,
            "count" : 2925,
            "type" : "VEC3"
        },
        {
            "bufferView" : 23,
            "componentType" : 5123,
            "count" : 3873,
            "type" : "SCALAR"
        },
        {
            "bufferView" : 24,
            "componentType" : 5126,
            "count" : 2727,
            "max" : [
                1.7354789972305298,
                1.6670639514923096,
                0.365013986825943
            ],
            "min" : [
                -1.0040839910507202,
                -6.388431072235107,
                0.33092600107192993
            ],
            "type" : "VEC3"
        },
        {
            "bufferView" : 25,
            "componentType" : 5126,
            "count" : 2727,
            "type" : "VEC2"
        },
        {
            "bufferView" : 26,
            "componentType" : 5126,
            "count" : 2727,
            "type" : "VEC3"
        },
        {
            "bufferView" : 27,
            "componentType" : 5123,
            "count" : 2973,
            "type" : "SCALAR"
        },
        {
            "bufferView" : 28,
            "componentType" : 5126,
            "count" : 7843,
            "max" : [
                1.3911709785461426,
                -5.612471103668213,
                0.43514499068260193
            ],
            "min" : [
                -1.1949230432510376,
                -5.629446983337402,
                0.4181689918041229
            ],
            "type" : "VEC3"
        },
        {
            "bufferView" : 29,
            "componentType" : 5126,
            "count" : 7843,
            "type" : "VEC2"
        },
        {
            "bufferView" : 30,
            "componentType" : 5126,
            "count" : 7843,
            "type" : "VEC3"
        },
        {
            "bufferView" : 31,
            "componentType" : 5123,
            "count" : 10506,
            "type" : "SCALAR"
        },
        {
            "bufferView" : 32,
            "componentType" : 5126,
            "count" : 519,
            "max" : [
                0.5340049862861633,
                4.462471961975098,
                0.9474300146102905
            ],
            "min" : [
                0.2941739857196808,
                4.022434234619141,
                0.6467750072479248
            ],
            "type" : "VEC3"
        },
        {
            "bufferView" : 33,
            "componentType" : 5126,
            "count" : 519,
            "type" : "VEC2"
        },
        {
            "bufferView" : 34,
            "componentType" : 5126,
            "count" : 519,
            "type" : "VEC3"
        },
        {
            "bufferView" : 35,
            "componentType" : 5123,
            "count" : 765,
            "type" : "SCALAR"
        }
    ],
    "bufferViews" : [
        {
            "buffer" : 0,
            "byteLength" : 121296,
            "byteOffset" : 0,
            "target" : 34962
        },
        {
            "buffer" : 0,
            "byteLength" : 80864,
            "byteOffset" : 121296,
            "target" : 34962
        },
        {
            "buffer" : 0,
            "byteLength" : 121296,
            "byteOffset" : 202160,
            "target" : 34962
        },
        {
            "buffer" : 0,
            "byteLength" : 28536,
            "byteOffset" : 323456,
            "target" : 34963
        },
        {
            "buffer" : 0,
            "byteLength" : 876408,
            "byteOffset" : 351992,
            "target" : 34962
        },
        {
            "buffer" : 0,
            "byteLength" : 584272,
            "byteOffset" : 1228400,
            "target" : 34962
        },
        {
            "buffer" : 0,
            "byteLength" : 876408,
            "byteOffset" : 1812672,
            "target" : 34962
        },
        {
            "buffer" : 0,
            "byteLength" : 620604,
            "byteOffset" : 2689080,
            "target" : 34963
        },
        {
            "buffer" : 0,
            "byteLength" : 10152,
            "byteOffset" : 3309684,
            "target" : 34962
        },
        {
            "buffer" : 0,
            "byteLength" : 6768,
            "byteOffset" : 3319836,
            "target" : 34962
        },
        {
            "buffer" : 0,
            "byteLength" : 10152,
            "byteOffset" : 3326604,
            "target" : 34962
        },
        {
            "buffer" : 0,
            "byteLength" : 6258,
            "byteOffset" : 3336756,
            "target" : 34963
        },
        {
            "buffer" : 0,
            "byteLength" : 63756,
            "byteOffset" : 3343016,
            "target" : 34962
        },
        {
            "buffer" : 0,
            "byteLength" : 42504,
            "byteOffset" : 3406772,
            "target" : 34962
        },
        {
            "buffer" : 0,
            "byteLength" : 63756,
            "byteOffset" : 3449276,
            "target" : 34962
        },
        {
            "buffer" : 0,
            "byteLength" : 14436,
            "byteOffset" : 3513032,
            "target" : 34963
        },
        {
            "buffer" : 0,
            "byteLength" : 1848,
            "byteOffset" : 3527468,
            "target" : 34962
        },
        {
            "buffer" : 0,
            "byteLength" : 1232,
            "byteOffset" : 3529316,
            "target" : 34962
        },
        {
            "buffer" : 0,
            "byteLength" : 1848,
            "byteOffset" : 3530548,
            "target" : 34962
        },
        {
            "buffer" : 0,
            "byteLength" : 384,
            "byteOffset" : 3532396,
            "target" : 34963
        },
        {
            "buffer" : 0,
            "byteLength" : 35100,
            "byteOffset" : 3532780,
            "target" : 34962
        },
        {
            "buffer" : 0,
            "byteLength" : 23400,
            "byteOffset" : 3567880,
            "target" : 34962
        },
        {
            "buffer" : 0,
            "byteLength" : 35100,
            "byteOffset" : 3591280,
            "target" : 34962
        },
        {
            "buffer" : 0,
            "byteLength" : 7746,
            "byteOffset" : 3626380,
            "target" : 34963
        },
        {
            "buffer" : 0,
            "byteLength" : 32724,
            "byteOffset" : 3634128,
            "target" : 34962
        },
        {
            "buffer" : 0,
            "byteLength" : 21816,
            "byteOffset" : 3666852,
            "target" : 34962
        },
        {
            "buffer" : 0,
            "byteLength" : 32724,
            "byteOffset" : 3688668,
            "target" : 34962
        },
        {
            "buffer" : 0,
            "byteLength" : 5946,
            "byteOffset" : 3721392,
            "target" : 34963
        },
        {
            "buffer" : 0,
            "byteLength" : 94116,
            "byteOffset" : 3727340,
            "target" : 34962
        },
        {
            "buffer" : 0,
            "byteLength" : 62744,
            "byteOffset" : 3821456,
            "target" : 34962
        },
        {
            "buffer" : 0,
            "byteLength" : 94116,
            "byteOffset" : 3884200,
            "target" : 34962
        },
        {
            "buffer" : 0,
            "byteLength" : 21012,
            "byteOffset" : 3978316,
            "target" : 34963
        },
        {
            "buffer" : 0,
            "byteLength" : 6228,
            "byteOffset" : 3999328,
            "target" : 34962
        },
        {
            "buffer" : 0,
            "byteLength" : 4152,
            "byteOffset" : 4005556,
            "target" : 34962
        },
        {
            "buffer" : 0,
            "byteLength" : 6228,
            "byteOffset" : 4009708,
            "target" : 34962
        },
        {
            "buffer" : 0,
            "byteLength" : 1530,
            "byteOffset" : 4015936,
            "target" : 34963
        }
    ],
    "buffers" : [
        {
            "byteLength" : 4017468,
            "uri" : "hm.bin"
        }
    ]
}
